<svg xmlns="http://www.w3.org/2000/svg" viewBox="0 0 138.84 138.21">
    <path fill="#FFF" d="m112.3,10.57c7.14,3.48,12.89,8.22,17.26,14.23,4.37,6.01,7.21,13.06,8.52,21.13,1.41,8.08.85,16.67-1.69,25.78-2.44,9.11-6.53,17.71-12.26,25.78-5.73,8.08-12.45,15.12-20.15,21.13-7.7,6.01-16.06,10.8-25.08,14.37-9.11,3.47-18.22,5.21-27.33,5.21-6.01,0-11.6-.73-16.77-2.18-5.17-1.46-9.77-3.59-13.81-6.41l-5.21,5.49,4.51-6.06c-4.23-2.82-7.84-6.25-10.85-10.28-3.01-4.04-5.31-8.52-6.9-13.46C.95,100.38.1,95.1,0,89.47c-.09-5.73.71-11.65,2.4-17.75,2.44-9.11,6.53-17.7,12.26-25.78,5.64-8.08,12.26-15.12,19.87-21.13,7.61-6.01,15.92-10.75,24.94-14.23,8.92-3.57,17.94-5.4,27.05-5.49l2.11-5.07-.71,5.07c9.11.09,17.24,1.93,24.37,5.49ZM8.46,86.93c.09,4.88.8,9.46,2.11,13.74,1.31,4.27,3.29,8.2,5.92,11.76,2.54,3.48,5.64,6.48,9.3,9.02l6.48-8.17c-2.91-2.16-5.4-4.74-7.47-7.75-2.07-3-3.64-6.29-4.72-9.86-1.08-3.57-1.62-7.37-1.62-11.41s.61-8.22,1.83-12.54c1.69-6.57,4.51-12.77,8.45-18.6,4.04-5.82,8.76-10.94,14.16-15.36,5.4-4.41,11.29-7.98,17.68-10.71,6.48-2.63,12.96-4.13,19.44-4.51l3.8-9.16c-7.98.09-15.87,1.74-23.67,4.93-7.89,3.1-15.15,7.28-21.77,12.54-6.62,5.26-12.38,11.41-17.26,18.46-4.88,6.95-8.41,14.42-10.57,22.4-1.41,5.26-2.11,10.33-2.11,15.22ZM77.92,28.32c-5.73.38-11.37,1.74-16.91,4.09-5.64,2.44-10.8,5.61-15.5,9.51-4.7,3.9-8.78,8.43-12.26,13.6-3.48,5.07-5.97,10.47-7.47,16.2-2.07,7.61-2.16,14.61-.28,20.99,1.88,6.39,5.4,11.55,10.57,15.5l17.47-23.95-.7-1.27c-.85-1.6-1.41-3.33-1.69-5.21-.28-1.88-.14-3.9.42-6.06,1.03-3.95,3.1-7.42,6.2-10.43,3.1-3,6.62-5.12,10.57-6.34l9.58-26.63Zm-.28,97.07c7.89-3.1,15.22-7.28,21.98-12.54,6.76-5.26,12.63-11.46,17.61-18.6,5.07-7.04,8.69-14.56,10.85-22.54,2.06-7.98,2.54-15.45,1.41-22.4-1.13-7.04-3.57-13.2-7.33-18.46-3.76-5.26-8.69-9.44-14.79-12.54-6.01-3.19-12.96-4.84-20.85-4.93l-1.69,9.16c6.48.38,12.21,1.88,17.19,4.51,4.98,2.73,8.99,6.29,12.05,10.71,3.05,4.42,5,9.53,5.85,15.36.85,5.82.37,12.02-1.41,18.6-1.79,6.67-4.79,13.01-9.02,19.02-4.13,5.92-9.04,11.08-14.72,15.5-5.68,4.42-11.81,7.89-18.39,10.43-6.67,2.54-13.34,3.8-20.01,3.8-4.32,0-8.29-.49-11.91-1.48-3.62-.99-6.88-2.42-9.79-4.3l-7.19,7.89c3.57,2.35,7.56,4.18,11.98,5.5,4.41,1.31,9.11,1.97,14.09,1.97,8.08,0,16.11-1.55,24.09-4.65Zm1.69-70.45c3.29,1.22,5.68,3.33,7.19,6.34,1.5,3.01,1.74,6.48.7,10.43-1.32,4.79-4.18,8.95-8.59,12.47-4.42,3.52-9.11,5.28-14.09,5.28-.66,0-1.39-.07-2.18-.21-.8-.14-1.53-.3-2.18-.49-.19-.19-.38-.3-.56-.35-.19-.05-.38-.07-.56-.07l-20.29,21.84c2.63,1.6,5.54,2.8,8.74,3.59,3.19.8,6.62,1.2,10.29,1.2,6.01,0,11.93-1.13,17.75-3.38,5.92-2.25,11.39-5.35,16.41-9.3,5.02-3.95,9.37-8.55,13.03-13.81,3.76-5.26,6.43-10.85,8.03-16.77,1.6-5.73,2.02-11.13,1.27-16.2-.75-5.16-2.44-9.7-5.07-13.6-2.63-3.9-6.11-7.07-10.43-9.51-4.32-2.35-9.3-3.71-14.93-4.09l-4.51,26.63Zm-16.91,7.26c-3.29,2.58-5.45,5.75-6.48,9.51-1.04,3.57-.59,6.67,1.34,9.3,1.92,2.63,4.72,3.94,8.38,3.94s7.3-1.31,10.64-3.94c3.33-2.63,5.52-5.73,6.55-9.3,1.03-3.76.56-6.93-1.41-9.51-1.97-2.58-4.84-3.87-8.59-3.87s-7.14,1.29-10.43,3.87Zm-.07,14.93c-1.08-1.55-1.39-3.36-.92-5.42.56-2.25,1.81-4.13,3.73-5.64,1.92-1.5,4.02-2.25,6.27-2.25s3.92.75,5,2.25c1.08,1.5,1.38,3.38.92,5.64-.75,2.07-2.09,3.87-4.02,5.42-1.93,1.55-3.92,2.33-5.99,2.33-2.25,0-3.92-.78-5-2.33Z"/>
</svg>