<?xml version="1.0" encoding="UTF-8" standalone="no"?>
<!DOCTYPE svg PUBLIC "-//W3C//DTD SVG 1.1//EN" "http://www.w3.org/Graphics/SVG/1.1/DTD/svg11.dtd">
<svg width="100%" height="100%" viewBox="0 0 200 200" version="1.1" xmlns="http://www.w3.org/2000/svg" xmlns:xlink="http://www.w3.org/1999/xlink" xml:space="preserve" xmlns:serif="http://www.serif.com/" style="fill-rule:evenodd;clip-rule:evenodd;stroke-linejoin:round;stroke-miterlimit:2;">
    <g transform="matrix(0.031193,0,0,0.031193,-6.84211,-6.13738)">
        <path d="M5350.79,5912.77L5350.79,844.948C5350.79,609.368 5183.6,418.106 4977.67,418.106L1945.85,418.106C1739.92,418.106 1572.73,609.368 1572.73,844.948L1572.73,5912.77L1299.21,5912.77C1234.03,5912.77 1181.1,5965.7 1181.1,6030.88L1181.1,6387.1L5669.29,6387.1L5669.29,6030.88C5669.29,5965.7 5616.37,5912.77 5551.18,5912.77L5350.79,5912.77ZM2764.77,1207.78C2764.77,1143.67 2712.72,1091.62 2648.6,1091.62L2416.27,1091.62C2352.16,1091.62 2300.11,1143.67 2300.11,1207.78L2300.11,4955.6C2300.11,5019.71 2352.16,5071.76 2416.27,5071.76L2648.6,5071.76C2712.72,5071.76 2764.77,5019.71 2764.77,4955.6L2764.77,1207.78ZM3694.09,3514.69C3694.09,3450.58 3642.04,3398.53 3577.92,3398.53L3345.59,3398.53C3281.48,3398.53 3229.43,3450.58 3229.43,3514.69L3229.43,4955.6C3229.43,5019.71 3281.48,5071.76 3345.59,5071.76L3577.92,5071.76C3642.04,5071.76 3694.09,5019.71 3694.09,4955.6L3694.09,3514.69ZM4623.41,1207.78C4623.41,1143.67 4571.36,1091.62 4507.24,1091.62L4274.91,1091.62C4210.8,1091.62 4158.75,1143.67 4158.75,1207.78L4158.75,4955.6C4158.75,5019.71 4210.8,5071.76 4274.91,5071.76L4507.24,5071.76C4571.36,5071.76 4623.41,5019.71 4623.41,4955.6L4623.41,1207.78ZM3694.09,1207.78C3694.09,1143.67 3642.04,1091.62 3577.92,1091.62L3345.59,1091.62C3281.48,1091.62 3229.43,1143.67 3229.43,1207.78L3229.43,2757.02C3229.43,2821.14 3281.48,2873.19 3345.59,2873.19L3577.92,2873.19C3642.04,2873.19 3694.09,2821.14 3694.09,2757.02L3694.09,1207.78Z"/>
    </g>
</svg>
