<?xml version="1.0" encoding="UTF-8" standalone="no"?>
<!DOCTYPE svg PUBLIC "-//W3C//DTD SVG 1.1//EN" "http://www.w3.org/Graphics/SVG/1.1/DTD/svg11.dtd">
<svg width="100%" height="100%" viewBox="0 0 200 200" version="1.1" xmlns="http://www.w3.org/2000/svg" xmlns:xlink="http://www.w3.org/1999/xlink" xml:space="preserve" xmlns:serif="http://www.serif.com/" style="fill-rule:evenodd;clip-rule:evenodd;stroke-linejoin:round;stroke-miterlimit:2;">
    <path d="M180,152.5C180,148.361 176.639,145 172.5,145L28.263,145C24.123,145 20.763,148.361 20.763,152.5L20.763,167.5C20.763,171.639 24.123,175 28.263,175L172.5,175C176.639,175 180,171.639 180,167.5L180,152.5ZM58,152C62.415,152 66,155.585 66,160C66,164.415 62.415,168 58,168C53.585,168 50,164.415 50,160C50,155.585 53.585,152 58,152ZM36,152C40.415,152 44,155.585 44,160C44,164.415 40.415,168 36,168C31.585,168 28,164.415 28,160C28,155.585 31.585,152 36,152ZM102,152C106.415,152 110,155.585 110,160C110,164.415 106.415,168 102,168C97.585,168 94,164.415 94,160C94,155.585 97.585,152 102,152ZM80,152C84.415,152 88,155.585 88,160C88,164.415 84.415,168 80,168C75.585,168 72,164.415 72,160C72,155.585 75.585,152 80,152ZM180,112.5C180,108.361 176.639,105 172.5,105L28.263,105C24.123,105 20.763,108.361 20.763,112.5L20.763,127.5C20.763,131.639 24.123,135 28.263,135L172.5,135C176.639,135 180,131.639 180,127.5L180,112.5ZM70,112C74.415,112 78,115.585 78,120C78,124.415 74.415,128 70,128C65.585,128 62,124.415 62,120C62,115.585 65.585,112 70,112ZM125,112C129.415,112 133,115.585 133,120C133,124.415 129.415,128 125,128C120.585,128 117,124.415 117,120C117,115.585 120.585,112 125,112ZM109.5,116.75C109.5,114.956 108.044,113.5 106.25,113.5L87.25,113.5C85.456,113.5 84,114.956 84,116.75L84,123.25C84,125.044 85.456,126.5 87.25,126.5L106.25,126.5C108.044,126.5 109.5,125.044 109.5,123.25L109.5,116.75ZM54.5,116.75C54.5,114.956 53.044,113.5 51.25,113.5L32.25,113.5C30.456,113.5 29,114.956 29,116.75L29,123.25C29,125.044 30.456,126.5 32.25,126.5L51.25,126.5C53.044,126.5 54.5,125.044 54.5,123.25L54.5,116.75ZM179.619,72.5C179.619,68.361 176.258,65 172.119,65L27.881,65C23.742,65 20.381,68.361 20.381,72.5L20.381,87.5C20.381,91.639 23.742,95 27.881,95L172.119,95C176.258,95 179.619,91.639 179.619,87.5L179.619,72.5ZM91,72C95.415,72 99,75.585 99,80C99,84.415 95.415,88 91,88C86.585,88 83,84.415 83,80C83,75.585 86.585,72 91,72ZM36,72C40.415,72 44,75.585 44,80C44,84.415 40.415,88 36,88C31.585,88 28,84.415 28,80C28,75.585 31.585,72 36,72ZM75.5,76.75C75.5,74.956 74.044,73.5 72.25,73.5L53.25,73.5C51.456,73.5 50,74.956 50,76.75L50,83.25C50,85.044 51.456,86.5 53.25,86.5L72.25,86.5C74.044,86.5 75.5,85.044 75.5,83.25L75.5,76.75ZM180,32.5C180,28.361 176.639,25 172.5,25L28.263,25C24.123,25 20.763,28.361 20.763,32.5L20.763,47.5C20.763,51.639 24.123,55 28.263,55L172.5,55C176.639,55 180,51.639 180,47.5L180,32.5ZM36,32C40.415,32 44,35.585 44,40C44,44.415 40.415,48 36,48C31.585,48 28,44.415 28,40C28,35.585 31.585,32 36,32ZM75.5,36.75C75.5,34.956 74.044,33.5 72.25,33.5L53.25,33.5C51.456,33.5 50,34.956 50,36.75L50,43.25C50,45.044 51.456,46.5 53.25,46.5L72.25,46.5C74.044,46.5 75.5,45.044 75.5,43.25L75.5,36.75Z"/>
</svg>
