<?xml version="1.0" encoding="UTF-8" standalone="no"?>
<!DOCTYPE svg PUBLIC "-//W3C//DTD SVG 1.1//EN" "http://www.w3.org/Graphics/SVG/1.1/DTD/svg11.dtd">
<svg width="100%" height="100%" viewBox="0 0 200 200" version="1.1" xmlns="http://www.w3.org/2000/svg" xmlns:xlink="http://www.w3.org/1999/xlink" xml:space="preserve" xmlns:serif="http://www.serif.com/" style="fill-rule:evenodd;clip-rule:evenodd;stroke-linejoin:round;stroke-miterlimit:2;">
    <path id="path3029" d="M176.141,155.946C180.299,162.553 181.097,168.214 178.535,172.929C175.974,177.643 170.759,180 162.889,180L34.601,180C26.731,180 21.516,177.643 18.954,172.929C16.393,168.214 17.191,162.553 21.349,155.946L77.364,67.636L77.364,23.203L70.236,23.203C68.306,23.203 66.636,22.498 65.225,21.087C63.815,19.677 63.109,18.006 63.109,16.076C63.109,14.146 63.815,12.475 65.225,11.065C66.636,9.654 68.306,8.949 70.236,8.949L127.253,8.949C129.184,8.949 130.854,9.654 132.265,11.065C133.675,12.475 134.381,14.146 134.381,16.076C134.381,18.006 133.675,19.677 132.265,21.087C130.854,22.498 129.184,23.203 127.253,23.203L120.126,23.203L120.126,67.636L176.141,155.946ZM89.391,75.209L53.744,132.722C59.37,134.795 74.689,121.421 96.223,125.803C117.835,130.2 134.365,142.762 138.39,122.983L108.099,75.209L105.872,71.757L105.872,23.203L91.618,23.203L91.618,71.757L89.391,75.209ZM117.043,109C120.636,109.024 123.534,111.961 123.51,115.553C123.486,119.146 120.55,122.044 116.957,122.02C113.364,121.996 110.466,119.06 110.49,115.467C110.514,111.874 113.45,108.976 117.043,109ZM96.745,94C101.301,94 105,97.699 105,102.255C105,106.811 101.301,110.51 96.745,110.51C92.189,110.51 88.49,106.811 88.49,102.255C88.49,97.699 92.189,94 96.745,94Z" style="fill-rule:nonzero;stroke:white;stroke-width:1px;"/>
</svg>
